<svg xmlns="http://www.w3.org/2000/svg" viewBox="0 0 512 512">
<defs>
<style class="fill-to-change"></style>
</defs>
<title>blog</title>
<g id="Слой_1-2" data-name="Слой 1"><path class="cls-1" d="M497.6,0,334.4.17A14.4,14.4,0,0,0,320,14.57V47.88a14.4,14.4,0,0,0,14.4,14.4h.29l73.63-2.72,2.06,2.06L131.52,340.49a12,12,0,0,0,0,17l0,0,23,23a12,12,0,0,0,17,0l0,0L450.38,101.62l2.06,2.06-2.72,73.63A14.41,14.41,0,0,0,463.83,192h33.6a14.4,14.4,0,0,0,14.4-14.4L512,14.4A14.4,14.4,0,0,0,497.6,0ZM432,288H416a16,16,0,0,0-16,16V458a6,6,0,0,1-6,6H54a6,6,0,0,1-6-6V118a6,6,0,0,1,6-6H208a16,16,0,0,0,16-16V80a16,16,0,0,0-16-16H48A48,48,0,0,0,0,112V464a48,48,0,0,0,48,48H400a48,48,0,0,0,48-48h0V304A16,16,0,0,0,432,288Z"/>
</g>
</g>
</svg>