<svg xmlns="http://www.w3.org/2000/svg" viewBox="0 0 512 512"><defs><style>.cls-1{fill:#2489f5;}</style></defs><title>comment-2</title><g id="Слой_2" data-name="Слой 2"><g id="Слой_1-2" data-name="Слой 1"><path class="cls-1" d="M448,0H64A64.06,64.06,0,0,0,0,64V352a64.06,64.06,0,0,0,64,64h96v84a12,12,0,0,0,12,12,11.48,11.48,0,0,0,7.1-2.4L304,416H448a64.06,64.06,0,0,0,64-64V64A64.06,64.06,0,0,0,448,0Zm16,352a16,16,0,0,1-16,16H288l-12.8,9.6L208,428V368H64a16,16,0,0,1-16-16V64A16,16,0,0,1,64,48H448a16,16,0,0,1,16,16ZM368,136H144a16,16,0,0,0-16,16v16a16,16,0,0,0,16,16H368a16,16,0,0,0,16-16V152A16,16,0,0,0,368,136Zm-96,96H144a16,16,0,0,0-16,16v16a16,16,0,0,0,16,16H272a16,16,0,0,0,16-16V248A16,16,0,0,0,272,232Z"/></g></g></svg>