<?xml version="1.0" encoding="utf-8"?>
<!-- Generator: Adobe Illustrator 23.1.0, SVG Export Plug-In . SVG Version: 6.00 Build 0)  -->
<svg version="1.1" id="Слой_1" xmlns="http://www.w3.org/2000/svg" xmlns:xlink="http://www.w3.org/1999/xlink" x="0px" y="0px"
	 viewBox="0 0 448 512" style="enable-background:new 0 0 448 512;" xml:space="preserve">
<style type="text/css">
	.st0{fill:#2489F5;}
</style>
<path class="st0" d="M443.5,190.1l4.3-24c1.3-7.4-4.3-14.1-11.8-14.1h-89l18.9-105.9c1.3-7.4-4.3-14.1-11.8-14.1h-24.4
	c-5.8,0-10.8,4.2-11.8,9.9L298.2,152H187l18.9-105.9c1.3-7.4-4.3-14.1-11.8-14.1h-24.4c-5.8,0-10.8,4.2-11.8,9.9L138.2,152H44.9
	c-5.8,0-10.8,4.2-11.8,9.9l-4.3,24c-1.3,7.4,4.3,14.1,11.8,14.1h89l-20,112H16.3c-5.8,0-10.8,4.2-11.8,9.9l-4.3,24
	C-1.1,353.2,4.5,360,12,360h89L82.1,465.9C80.8,473.2,86.5,480,94,480h24.4c5.8,0,10.8-4.2,11.8-9.9L149.8,360H261l-18.9,105.9
	c-1.3,7.4,4.3,14.1,11.8,14.1h24.4c5.8,0,10.8-4.2,11.8-9.9L309.8,360h93.3c5.8,0,10.8-4.2,11.8-9.9l4.3-24
	c1.3-7.4-4.3-14.1-11.8-14.1h-89l20-112h93.3C437.5,200,442.5,195.8,443.5,190.1z M269.6,312H158.4l20-112h111.2L269.6,312z"/>
</svg>
