<svg xmlns="http://www.w3.org/2000/svg" viewBox="0 0 512 416"><defs><style>.cls-1,.cls-2{fill:#282a36;}.cls-1{opacity:0.4;isolation:isolate;}</style></defs><title>list-ul</title><g id="Слой_2" data-name="Слой 2"><g id="Слой_1-2" data-name="Слой 1"><path class="cls-1" d="M496,336H176a16,16,0,0,0-16,16v32a16,16,0,0,0,16,16H496a16,16,0,0,0,16-16V352A16,16,0,0,0,496,336Zm0-320H176a16,16,0,0,0-16,16V64a16,16,0,0,0,16,16H496a16,16,0,0,0,16-16V32A16,16,0,0,0,496,16Zm0,160H176a16,16,0,0,0-16,16v32a16,16,0,0,0,16,16H496a16,16,0,0,0,16-16V192A16,16,0,0,0,496,176Z"/><path class="cls-2" d="M48,0A48,48,0,1,0,96,48,48,48,0,0,0,48,0Zm0,160a48,48,0,1,0,48,48A48,48,0,0,0,48,160Zm0,160a48,48,0,1,0,48,48A48,48,0,0,0,48,320Z"/></g></g></svg>