<svg xmlns="http://www.w3.org/2000/svg" viewBox="0 0 1184.72 235.63"><defs><style>.cls-1,.cls-4{fill:#2489f5;stroke:#2489f5;}.cls-1,.cls-2,.cls-3,.cls-4,.cls-5{stroke-miterlimit:10;}.cls-1,.cls-2{stroke-width:8px;}.cls-2,.cls-3,.cls-6{fill:#243746;}.cls-2,.cls-3,.cls-5{stroke:#243746;}.cls-3{stroke-width:10px;}.cls-4{stroke-width:5px;}.cls-5{fill:none;stroke-width:18px;}</style></defs><title>logo</title><g id="Слой_2" data-name="Слой 2"><g id="Layer_1" data-name="Layer 1"><polygon class="cls-1" points="692.76 219.38 649.8 219.38 649.8 229.46 702.66 229.46 702.66 175.62 692.76 175.62 692.76 219.38"/><polygon class="cls-2" points="692.76 14.08 692.76 57.84 702.66 57.84 702.66 4 649.8 4 649.8 14.08 692.76 14.08"/><polygon class="cls-2" points="491.26 14.08 534.21 14.08 534.21 4 481.36 4 481.36 57.84 491.26 57.84 491.26 14.08"/><rect class="cls-3" x="550.53" y="220.1" width="82.9" height="8.8"/><rect class="cls-2" x="692.76" y="75.74" width="9.9" height="80.19"/><rect class="cls-2" x="550.53" y="4" width="82.9" height="8.88"/><rect class="cls-2" x="481.36" y="76.19" width="9.9" height="79.74"/><polygon class="cls-2" points="491.26 219.38 491.26 175.62 481.36 175.62 481.36 229.46 534.21 229.46 534.21 219.38 491.26 219.38"/><path class="cls-4" d="M675.42,75.36h-7.75A20.25,20.25,0,0,0,665.32,66C661.61,59.74,654.94,60,648.87,60h-38.5c-8.45,0-13,7.33-13.12,15.4H585.12C585,71.53,584.27,67.8,582,65c-4.42-5.43-10.31-5-16.38-5H542.52c-10.26,0-27.84-2.45-27.84,13.79v1.61h-7.87c-6.41,0-6.41,10.5,0,10.5h7.87v17.57a6.46,6.46,0,0,0,0,.88,5.73,5.73,0,0,0,.17,1.41c1.2,8.22,7.24,12.34,15,12.34h20.45c10.95,0,34.66,4.33,34.66-13.8V85.86h12.25V98.73c0,7.45.7,16.51,9.15,18.71,3.8,1,7.85.62,11.74.62h20.62c10.87,0,26.64,2.59,28.65-12.43a6.06,6.06,0,0,0,.15-1.32,6.46,6.46,0,0,0,0-.88V85.86h7.87C681.83,85.86,681.83,75.36,675.42,75.36ZM576.71,98.71c0,6.32-4.45,11.43-9.94,11.43H532.65c-5.49,0-9.94-5.11-9.94-11.43v-20c0-6.3,4.45-11.43,9.94-11.43h34.12c5.49,0,9.94,5.13,9.94,11.43Zm82.89.44c0,6.32-4.45,11.43-9.94,11.43H615.55c-5.5,0-9.94-5.11-9.94-11.43v-20c0-6.3,4.44-11.43,9.94-11.43h34.11c5.49,0,9.94,5.13,9.94,11.43Z"/><line class="cls-5" x1="537.77" y1="157.77" x2="647.94" y2="169.65"/><path class="cls-6" d="M72.49,45.13A42.38,42.38,0,0,1,89,61.57Q95,72.11,95,86a49.16,49.16,0,0,1-6,24.48A42.19,42.19,0,0,1,72.49,127a48.24,48.24,0,0,1-23.88,5.88,43.31,43.31,0,0,1-18.68-4,35.89,35.89,0,0,1-14-11.59v14.54H0V3.44H16.61V54A35.19,35.19,0,0,1,30.45,43a43.89,43.89,0,0,1,18.16-3.72A48.24,48.24,0,0,1,72.49,45.13Zm-9.43,69.12a29.31,29.31,0,0,0,11.07-11.42A34.27,34.27,0,0,0,78.2,86a34.32,34.32,0,0,0-4.07-16.87A28.74,28.74,0,0,0,63.06,57.76a31.52,31.52,0,0,0-15.83-4,31.61,31.61,0,0,0-15.74,4A28.05,28.05,0,0,0,20.41,69.09a35,35,0,0,0-4,16.87,34.89,34.89,0,0,0,4,16.87,28.6,28.6,0,0,0,11.08,11.42,31,31,0,0,0,15.74,4.06A31,31,0,0,0,63.06,114.25Z"/><path class="cls-6" d="M146.7,43.4q8.48-4.14,20.59-4.15V55.34a33.87,33.87,0,0,0-3.81-.17q-13.48,0-21.19,8t-7.7,22.92v45.68H118V40.12H133.9V55.51A28.36,28.36,0,0,1,146.7,43.4Z"/><path class="cls-6" d="M188,19.36a10.25,10.25,0,0,1-3.2-7.62A10.54,10.54,0,0,1,188,4a10.94,10.94,0,0,1,8-3.2,11.28,11.28,0,0,1,8,3,9.92,9.92,0,0,1,3.2,7.53,10.67,10.67,0,0,1-3.2,7.87,10.92,10.92,0,0,1-8,3.2A11.11,11.11,0,0,1,188,19.36Zm-.26,20.76h16.61v91.69H187.7Z"/><path class="cls-6" d="M250.93,126.79a44.36,44.36,0,0,1-17.21-16.7A46.87,46.87,0,0,1,227.49,86a46.89,46.89,0,0,1,6.23-24.13,43.72,43.72,0,0,1,17.21-16.61,51.53,51.53,0,0,1,25-6,47.88,47.88,0,0,1,22.23,5A35.73,35.73,0,0,1,313.3,58.8l-12.63,8.13A28.23,28.23,0,0,0,290,57.07a30.64,30.64,0,0,0-14.19-3.29,32.85,32.85,0,0,0-16.18,4,28.43,28.43,0,0,0-11.24,11.33A34.32,34.32,0,0,0,244.27,86a34.64,34.64,0,0,0,4.07,17,28.37,28.37,0,0,0,11.24,11.33,32.74,32.74,0,0,0,16.18,4A30.51,30.51,0,0,0,290,115a28.08,28.08,0,0,0,10.72-9.86l12.63,8a36.24,36.24,0,0,1-15.14,14.62,47.3,47.3,0,0,1-22.23,5.1A50.91,50.91,0,0,1,250.93,126.79Z"/><path class="cls-6" d="M369.18,89.07l-19,17.65v25.09H333.54V3.44h16.61V85.79l50-45.67h20.07L381.64,78,424,131.81H403.61Z"/><path class="cls-6" d="M791.58,229.57a44.36,44.36,0,0,1-17.22-16.69,49.93,49.93,0,0,1,0-48.27A43.81,43.81,0,0,1,791.58,148a51.47,51.47,0,0,1,25-6,48.06,48.06,0,0,1,22.23,5,35.77,35.77,0,0,1,15.13,14.53l-12.62,8.14a28.36,28.36,0,0,0-10.73-9.87,30.63,30.63,0,0,0-14.19-3.28,32.7,32.7,0,0,0-16.17,4A28.33,28.33,0,0,0,789,171.88a34.27,34.27,0,0,0-4.06,16.87,34.63,34.63,0,0,0,4.06,17,28.33,28.33,0,0,0,11.25,11.33,32.81,32.81,0,0,0,16.17,4,30.64,30.64,0,0,0,14.19-3.29A28.33,28.33,0,0,0,841.32,208l12.62,8a36.25,36.25,0,0,1-15.13,14.61,47.25,47.25,0,0,1-22.23,5.11A50.86,50.86,0,0,1,791.58,229.57Z"/><path class="cls-6" d="M888.72,229.57a43.82,43.82,0,0,1-17-16.69,50.5,50.5,0,0,1,0-48.27,43.28,43.28,0,0,1,17-16.61,53.42,53.42,0,0,1,49,0,43.54,43.54,0,0,1,17,16.61,50.5,50.5,0,0,1,0,48.27,44.08,44.08,0,0,1-17,16.69,52.64,52.64,0,0,1-49,0ZM929.11,217a28.71,28.71,0,0,0,11-11.42,37.72,37.72,0,0,0,0-33.73,28.16,28.16,0,0,0-11-11.33,33.47,33.47,0,0,0-31.66,0,28.67,28.67,0,0,0-11.07,11.33,37.06,37.06,0,0,0,0,33.73A29.24,29.24,0,0,0,897.45,217a32.82,32.82,0,0,0,31.66,0Z"/><path class="cls-6" d="M1070.37,106.22V234.59h-15.92V220.06a35.89,35.89,0,0,1-14,11.59,43.47,43.47,0,0,1-18.69,4,48.18,48.18,0,0,1-23.87-5.88,42.13,42.13,0,0,1-16.52-16.52,49.21,49.21,0,0,1-6-24.48q0-13.84,6-24.4a42.29,42.29,0,0,1,16.52-16.43,48.18,48.18,0,0,1,23.87-5.88,44.09,44.09,0,0,1,18.17,3.71,35.37,35.37,0,0,1,13.84,11V106.22ZM1038.88,217A28.44,28.44,0,0,0,1050,205.61a37.72,37.72,0,0,0,0-33.73,27.9,27.9,0,0,0-11.07-11.33,33.29,33.29,0,0,0-31.57,0,28.67,28.67,0,0,0-11.07,11.33,37,37,0,0,0,0,33.73A29.24,29.24,0,0,0,1007.31,217a32.64,32.64,0,0,0,31.57,0Z"/><path class="cls-6" d="M1184.37,194.28H1110a28.8,28.8,0,0,0,10.64,19.46q9.09,7.37,22.58,7.36,16.44,0,26.47-11.08l9.17,10.73a40.13,40.13,0,0,1-15.49,11.07,58.35,58.35,0,0,1-46.45-2.16A42.57,42.57,0,0,1,1099.52,213a47.82,47.82,0,0,1-6.14-24.22,48.71,48.71,0,0,1,6-24.05,42.78,42.78,0,0,1,16.44-16.7,46.8,46.8,0,0,1,23.61-6,45.83,45.83,0,0,1,23.44,6,41.87,41.87,0,0,1,16.09,16.7,50.78,50.78,0,0,1,5.8,24.56A47.89,47.89,0,0,1,1184.37,194.28Zm-65-31q-8,7.27-9.43,19h58.82a29.48,29.48,0,0,0-9.42-18.94q-8.06-7.35-20-7.35T1119.41,163.31Z"/></g></g></svg>