<svg xmlns="http://www.w3.org/2000/svg" viewBox="0 0 773.49 313.61"><defs><style>.cls-1,.cls-4{fill:#2489f5;stroke:#2489f5;}.cls-1,.cls-2,.cls-3,.cls-4,.cls-5{stroke-miterlimit:10;}.cls-1,.cls-2{stroke-width:8px;}.cls-2,.cls-3,.cls-6{fill:#243746;}.cls-2,.cls-3,.cls-5{stroke:#243746;}.cls-3{stroke-width:10px;}.cls-4{stroke-width:5px;}.cls-5{fill:none;stroke-width:18px;}</style></defs><title>logo-3_1</title><g id="Слой_2" data-name="Слой 2"><g id="Layer_1" data-name="Layer 1"><polygon class="cls-1" points="290.34 295.72 232.16 295.72 232.16 309.38 303.74 309.38 303.74 236.45 290.34 236.45 290.34 295.72"/><polygon class="cls-2" points="290.34 17.66 290.34 76.93 303.74 76.93 303.74 4 232.16 4 232.16 17.66 290.34 17.66"/><polygon class="cls-2" points="17.4 17.66 75.58 17.66 75.58 4 4 4 4 76.93 17.4 76.93 17.4 17.66"/><rect class="cls-3" x="97.69" y="296.7" width="112.28" height="11.91"/><rect class="cls-2" x="290.34" y="101.17" width="13.4" height="108.62"/><rect class="cls-2" x="97.69" y="4" width="112.28" height="12.03"/><rect class="cls-2" x="4" y="101.78" width="13.4" height="108.01"/><polygon class="cls-2" points="17.4 295.72 17.4 236.45 4 236.45 4 309.38 75.58 309.38 75.58 295.72 17.4 295.72"/><path class="cls-4" d="M266.85,100.66h-10.5c-.23-4.52-1-8.9-3.19-12.64-5-8.53-14-8.23-22.27-8.23H178.74c-11.44,0-17.55,9.94-17.77,20.87H144.54c-.2-5.19-1.15-10.25-4.26-14.07-6-7.37-14-6.8-22.18-6.8H86.84c-13.9,0-37.71-3.31-37.71,18.68v2.19H38.47c-8.68,0-8.68,14.22,0,14.22H49.13v23.8a13,13,0,0,0,.23,3.1c1.62,11.13,9.81,16.71,20.36,16.71H97.41c14.83,0,47,5.86,47-18.69V114.88H161v17.43c0,10.09.94,22.36,12.4,25.35,5.14,1.34,10.63.83,15.89.83h27.93c14.73,0,36.08,3.5,38.81-16.84a8.36,8.36,0,0,0,.2-1.78,7.88,7.88,0,0,0,0-1.19v-23.8h10.66C275.53,114.88,275.53,100.66,266.85,100.66Zm-133.7,31.62c0,8.56-6,15.48-13.46,15.48H73.47C66,147.76,60,140.84,60,132.28v-27c0-8.55,6-15.48,13.46-15.48h46.22c7.43,0,13.46,6.93,13.46,15.48Zm112.27.6c0,8.56-6,15.48-13.46,15.48H185.75c-7.44,0-13.46-6.92-13.46-15.48v-27c0-8.55,6-15.49,13.46-15.49H232c7.43,0,13.46,6.94,13.46,15.49Z"/><line class="cls-5" x1="80.41" y1="212.27" x2="229.63" y2="228.36"/><path class="cls-6" d="M421.06,54.71a42.19,42.19,0,0,1,16.52,16.44q6,10.55,6,24.39a49.16,49.16,0,0,1-6,24.48,42.06,42.06,0,0,1-16.52,16.52,48.18,48.18,0,0,1-23.87,5.88,43.24,43.24,0,0,1-18.68-4,35.85,35.85,0,0,1-14-11.59v14.54H348.58V13h16.6V63.54a35.26,35.26,0,0,1,13.84-11,44,44,0,0,1,18.17-3.72A48.18,48.18,0,0,1,421.06,54.71Zm-9.43,69.12a29.27,29.27,0,0,0,11.08-11.42,34.29,34.29,0,0,0,4.06-16.87,34.32,34.32,0,0,0-4.06-16.87,28.7,28.7,0,0,0-11.08-11.33,33.29,33.29,0,0,0-31.57,0A28,28,0,0,0,369,78.67a35,35,0,0,0-4,16.87,34.92,34.92,0,0,0,4,16.87,28.51,28.51,0,0,0,11.07,11.42,32.72,32.72,0,0,0,31.57,0Z"/><path class="cls-6" d="M495.28,53q8.48-4.15,20.59-4.15V64.92a34,34,0,0,0-3.81-.17q-13.5,0-21.19,8t-7.7,22.92v45.68H466.56V49.7h15.92V65.09A28.36,28.36,0,0,1,495.28,53Z"/><path class="cls-6" d="M536.54,28.94a10.21,10.21,0,0,1-3.2-7.62,10.5,10.5,0,0,1,3.2-7.7,10.91,10.91,0,0,1,8-3.2,11.3,11.3,0,0,1,8,3,10,10,0,0,1,3.2,7.53,10.71,10.71,0,0,1-3.2,7.87,10.94,10.94,0,0,1-8,3.2A11.07,11.07,0,0,1,536.54,28.94Zm-.26,20.76h16.61v91.69H536.28Z"/><path class="cls-6" d="M599.51,136.37a44.29,44.29,0,0,1-17.21-16.7,46.77,46.77,0,0,1-6.23-24.13,46.77,46.77,0,0,1,6.23-24.13A43.65,43.65,0,0,1,599.51,54.8a51.51,51.51,0,0,1,25-6,47.94,47.94,0,0,1,22.23,5,35.79,35.79,0,0,1,15.14,14.53l-12.63,8.13a28.26,28.26,0,0,0-10.73-9.86,30.59,30.59,0,0,0-14.18-3.29,32.82,32.82,0,0,0-16.18,4,28.39,28.39,0,0,0-11.25,11.33,34.32,34.32,0,0,0-4.06,16.87,34.63,34.63,0,0,0,4.06,17,28.33,28.33,0,0,0,11.25,11.33,32.72,32.72,0,0,0,16.18,4,30.47,30.47,0,0,0,14.18-3.29,28.1,28.1,0,0,0,10.73-9.86l12.63,8a36.3,36.3,0,0,1-15.14,14.62,47.36,47.36,0,0,1-22.23,5.1A50.88,50.88,0,0,1,599.51,136.37Z"/><path class="cls-6" d="M717.76,98.65l-19,17.65v25.09H682.12V13h16.61V95.37l50-45.67h20.07L730.21,87.58l42.39,53.81H752.18Z"/><path class="cls-6" d="M380.35,295.1a44.42,44.42,0,0,1-17.21-16.7,49.86,49.86,0,0,1,0-48.27,43.7,43.7,0,0,1,17.21-16.6,51.51,51.51,0,0,1,25-6,48.06,48.06,0,0,1,22.23,5,35.76,35.76,0,0,1,15.14,14.54l-12.63,8.13a28.19,28.19,0,0,0-10.73-9.86,30.57,30.57,0,0,0-14.18-3.29,32.85,32.85,0,0,0-16.18,4,28.37,28.37,0,0,0-11.24,11.33,37.35,37.35,0,0,0,0,33.91A28.37,28.37,0,0,0,389,282.64a32.85,32.85,0,0,0,16.18,4,30.57,30.57,0,0,0,14.18-3.29,28.19,28.19,0,0,0,10.73-9.86l12.63,8a36.3,36.3,0,0,1-15.14,14.62,47.36,47.36,0,0,1-22.23,5.1A51,51,0,0,1,380.35,295.1Z"/><path class="cls-6" d="M477.49,295.1a44,44,0,0,1-17-16.7,50.5,50.5,0,0,1,0-48.27,43.25,43.25,0,0,1,17-16.6,50.31,50.31,0,0,1,24.57-6,49.8,49.8,0,0,1,24.48,6,43.42,43.42,0,0,1,17,16.6,50.5,50.5,0,0,1,0,48.27,44.15,44.15,0,0,1-17,16.7,49.31,49.31,0,0,1-24.48,6A49.82,49.82,0,0,1,477.49,295.1Zm40.4-12.55a28.62,28.62,0,0,0,11-11.42,37.72,37.72,0,0,0,0-33.73,28.07,28.07,0,0,0-11-11.33,33.47,33.47,0,0,0-31.66,0,28.67,28.67,0,0,0-11.07,11.33,37,37,0,0,0,0,33.73,29.24,29.24,0,0,0,11.07,11.42,32.82,32.82,0,0,0,31.66,0Z"/><path class="cls-6" d="M659.14,171.75V300.11H643.23V285.58a36,36,0,0,1-14,11.59,43.31,43.31,0,0,1-18.68,4,48.18,48.18,0,0,1-23.87-5.88,42.15,42.15,0,0,1-16.53-16.52,49.28,49.28,0,0,1-6-24.48q0-13.85,6-24.4a42.32,42.32,0,0,1,16.53-16.43,48.18,48.18,0,0,1,23.87-5.88,43.89,43.89,0,0,1,18.16,3.72,35.26,35.26,0,0,1,13.84,11V171.75Zm-31.48,110.8a28.57,28.57,0,0,0,11.07-11.42,37.72,37.72,0,0,0,0-33.73,28,28,0,0,0-11.07-11.33,33.31,33.31,0,0,0-31.58,0A28.67,28.67,0,0,0,585,237.4a37.06,37.06,0,0,0,0,33.73,29.24,29.24,0,0,0,11.07,11.42,32.66,32.66,0,0,0,31.58,0Z"/><path class="cls-6" d="M773.15,259.8H698.76a28.78,28.78,0,0,0,10.64,19.47q9.08,7.35,22.57,7.35,16.44,0,26.47-11.07l9.17,10.72a40,40,0,0,1-15.48,11.07,53.83,53.83,0,0,1-20.67,3.81q-14.54,0-25.78-6a42.53,42.53,0,0,1-17.39-16.69,47.92,47.92,0,0,1-6.14-24.22,48.61,48.61,0,0,1,6-24.05,42.67,42.67,0,0,1,16.43-16.69,46.82,46.82,0,0,1,23.62-6,45.86,45.86,0,0,1,23.44,6,41.91,41.91,0,0,1,16.09,16.69,50.9,50.9,0,0,1,5.79,24.57A47.27,47.27,0,0,1,773.15,259.8Zm-65-31q-8.06,7.26-9.43,19h58.82a29.57,29.57,0,0,0-9.43-19q-8-7.35-20-7.35T708.19,228.84Z"/></g></g></svg>