<svg xmlns="http://www.w3.org/2000/svg" viewBox="0 0 1184.72 235.54"><defs><style>.cls-1,.cls-4{fill:#2489f5;stroke:#2489f5;}.cls-1,.cls-2,.cls-3,.cls-4,.cls-5{stroke-miterlimit:10;}.cls-1,.cls-2{stroke-width:8px;}.cls-2,.cls-3,.cls-6{fill:#ebf4f1;}.cls-2,.cls-3,.cls-5{stroke:#ebf4f1;}.cls-3{stroke-width:10px;}.cls-4{stroke-width:5px;}.cls-5{fill:none;stroke-width:18px;}</style></defs><title>logo-2</title><g id="Слой_2" data-name="Слой 2"><g id="Layer_1" data-name="Layer 1"><polygon class="cls-1" points="692.76 217.44 650.19 217.44 650.19 227.43 702.57 227.43 702.57 174.07 692.76 174.07 692.76 217.44"/><polygon class="cls-2" points="692.76 13.99 692.76 57.36 702.57 57.36 702.57 4 650.19 4 650.19 13.99 692.76 13.99"/><polygon class="cls-2" points="493.07 13.99 535.64 13.99 535.64 4 483.27 4 483.27 57.36 493.07 57.36 493.07 13.99"/><rect class="cls-3" x="551.82" y="218.15" width="82.15" height="8.72"/><rect class="cls-2" x="692.76" y="75.09" width="9.81" height="79.47"/><rect class="cls-2" x="551.82" y="4" width="82.15" height="8.8"/><rect class="cls-2" x="483.27" y="75.54" width="9.81" height="79.02"/><polygon class="cls-2" points="493.07 217.44 493.07 174.07 483.27 174.07 483.27 227.43 535.64 227.43 535.64 217.44 493.07 217.44"/><path class="cls-4" d="M675.58,74.72H667.9a20,20,0,0,0-2.34-9.24c-3.67-6.25-10.28-6-16.3-6H611.11c-8.37,0-12.84,7.27-13,15.27h-12c-.15-3.8-.84-7.5-3.11-10.3-4.38-5.39-10.22-5-16.23-5H543.88c-10.17,0-27.6-2.42-27.6,13.67v1.6h-7.79c-6.36,0-6.36,10.4,0,10.4h7.79v17.42a6.31,6.31,0,0,0,0,.87,5.57,5.57,0,0,0,.17,1.39c1.19,8.15,7.18,12.23,14.9,12.23h20.26c10.85,0,34.35,4.29,34.35-13.67V85.12H598.1V97.87c0,7.39.69,16.37,9.07,18.55,3.76,1,7.78.61,11.63.61h20.44c10.77,0,26.39,2.56,28.39-12.32a5.94,5.94,0,0,0,.15-1.3,6.31,6.31,0,0,0,0-.87V85.12h7.8C681.93,85.12,681.93,74.72,675.58,74.72ZM577.76,97.85c0,6.27-4.42,11.33-9.85,11.33H534.09c-5.44,0-9.85-5.06-9.85-11.33V78.07c0-6.25,4.41-11.33,9.85-11.33h33.82c5.43,0,9.85,5.08,9.85,11.33Zm82.14.44c0,6.26-4.41,11.33-9.85,11.33H616.24c-5.44,0-9.84-5.07-9.84-11.33V78.51c0-6.25,4.4-11.33,9.84-11.33h33.81c5.44,0,9.85,5.08,9.85,11.33Z"/><line class="cls-5" x1="541.64" y1="167.31" x2="650.99" y2="157.22"/><path class="cls-6" d="M72.49,45A42.32,42.32,0,0,1,89,61.48Q95,72,95,85.87a49.16,49.16,0,0,1-6,24.48,42.19,42.19,0,0,1-16.52,16.52,48.24,48.24,0,0,1-23.88,5.88,43.31,43.31,0,0,1-18.68-4,35.89,35.89,0,0,1-14-11.59v14.54H0V3.35H16.61V53.87a35.19,35.19,0,0,1,13.84-11,43.89,43.89,0,0,1,18.16-3.72A48.24,48.24,0,0,1,72.49,45Zm-9.43,69.12a29.31,29.31,0,0,0,11.07-11.42A34.3,34.3,0,0,0,78.2,85.87,34.32,34.32,0,0,0,74.13,69,28.74,28.74,0,0,0,63.06,57.67a31.52,31.52,0,0,0-15.83-4,31.61,31.61,0,0,0-15.74,4A28.05,28.05,0,0,0,20.41,69a35,35,0,0,0-4,16.87,34.92,34.92,0,0,0,4,16.87,28.6,28.6,0,0,0,11.08,11.42,31,31,0,0,0,15.74,4.06A31,31,0,0,0,63.06,114.16Z"/><path class="cls-6" d="M146.7,43.31q8.48-4.16,20.59-4.15V55.25a33.87,33.87,0,0,0-3.81-.17q-13.48,0-21.19,8T134.59,86v45.68H118V40H133.9v15.4A28.36,28.36,0,0,1,146.7,43.31Z"/><path class="cls-6" d="M188,19.26a10.21,10.21,0,0,1-3.2-7.61A10.54,10.54,0,0,1,188,4a10.94,10.94,0,0,1,8-3.2,11.24,11.24,0,0,1,8,3,9.92,9.92,0,0,1,3.2,7.53,10.67,10.67,0,0,1-3.2,7.87,10.92,10.92,0,0,1-8,3.2A11.08,11.08,0,0,1,188,19.26ZM187.7,40h16.61v91.7H187.7Z"/><path class="cls-6" d="M250.93,126.7A44.36,44.36,0,0,1,233.72,110a46.87,46.87,0,0,1-6.23-24.13,46.87,46.87,0,0,1,6.23-24.13,43.72,43.72,0,0,1,17.21-16.61,51.53,51.53,0,0,1,25-6,47.88,47.88,0,0,1,22.23,5A35.73,35.73,0,0,1,313.3,58.71l-12.63,8.13A28.23,28.23,0,0,0,290,57a30.64,30.64,0,0,0-14.19-3.29,32.85,32.85,0,0,0-16.18,4A28.43,28.43,0,0,0,248.34,69a34.32,34.32,0,0,0-4.07,16.87,34.64,34.64,0,0,0,4.07,17,28.37,28.37,0,0,0,11.24,11.33,32.74,32.74,0,0,0,16.18,4A30.51,30.51,0,0,0,290,114.93a28.16,28.16,0,0,0,10.72-9.86l12.63,8a36.24,36.24,0,0,1-15.14,14.62,47.3,47.3,0,0,1-22.23,5.1A50.91,50.91,0,0,1,250.93,126.7Z"/><path class="cls-6" d="M369.18,89l-19,17.65v25.09H333.54V3.35h16.61V85.7l50-45.68h20.07L381.64,77.91,424,131.72H403.61Z"/><path class="cls-6" d="M791.58,229.48a44.36,44.36,0,0,1-17.22-16.69,49.93,49.93,0,0,1,0-48.27,43.81,43.81,0,0,1,17.22-16.61,51.48,51.48,0,0,1,25-6,48.07,48.07,0,0,1,22.23,5,35.77,35.77,0,0,1,15.13,14.53l-12.62,8.13a28.41,28.41,0,0,0-10.73-9.86,30.63,30.63,0,0,0-14.19-3.28,32.7,32.7,0,0,0-16.17,4A28.33,28.33,0,0,0,789,171.79a34.25,34.25,0,0,0-4.06,16.86,34.63,34.63,0,0,0,4.06,17A28.36,28.36,0,0,0,800.23,217a32.81,32.81,0,0,0,16.17,4,30.64,30.64,0,0,0,14.19-3.29,28.33,28.33,0,0,0,10.73-9.86l12.62,8a36.25,36.25,0,0,1-15.13,14.61,47.25,47.25,0,0,1-22.23,5.11A50.86,50.86,0,0,1,791.58,229.48Z"/><path class="cls-6" d="M888.72,229.48a43.82,43.82,0,0,1-17-16.69,50.5,50.5,0,0,1,0-48.27,43.28,43.28,0,0,1,17-16.61,53.34,53.34,0,0,1,49,0,43.54,43.54,0,0,1,17,16.61,50.5,50.5,0,0,1,0,48.27,44.08,44.08,0,0,1-17,16.69,52.64,52.64,0,0,1-49,0Zm40.39-12.54a28.71,28.71,0,0,0,11-11.42,37.72,37.72,0,0,0,0-33.73,28.16,28.16,0,0,0-11-11.33,33.47,33.47,0,0,0-31.66,0,28.67,28.67,0,0,0-11.07,11.33,37.06,37.06,0,0,0,0,33.73,29.24,29.24,0,0,0,11.07,11.42,32.82,32.82,0,0,0,31.66,0Z"/><path class="cls-6" d="M1070.37,106.13V234.5h-15.92V220a36,36,0,0,1-14,11.59,43.47,43.47,0,0,1-18.69,4,48.18,48.18,0,0,1-23.87-5.88,42.09,42.09,0,0,1-16.52-16.53,49.16,49.16,0,0,1-6-24.48q0-13.83,6-24.39a42.29,42.29,0,0,1,16.52-16.43,48.19,48.19,0,0,1,23.87-5.89,43.94,43.94,0,0,1,18.17,3.72,35.28,35.28,0,0,1,13.84,11V106.13Zm-31.49,110.81A28.44,28.44,0,0,0,1050,205.52a37.72,37.72,0,0,0,0-33.73,27.9,27.9,0,0,0-11.07-11.33,33.29,33.29,0,0,0-31.57,0,28.67,28.67,0,0,0-11.07,11.33,37,37,0,0,0,0,33.73,29.24,29.24,0,0,0,11.07,11.42,32.64,32.64,0,0,0,31.57,0Z"/><path class="cls-6" d="M1184.37,194.19H1110a28.82,28.82,0,0,0,10.64,19.46q9.09,7.36,22.58,7.36,16.44,0,26.47-11.08l9.17,10.73a40.13,40.13,0,0,1-15.49,11.07,58.35,58.35,0,0,1-46.45-2.16,42.53,42.53,0,0,1-17.38-16.7,47.79,47.79,0,0,1-6.14-24.22,48.67,48.67,0,0,1,6-24,42.78,42.78,0,0,1,16.44-16.7,46.81,46.81,0,0,1,23.61-6,45.84,45.84,0,0,1,23.44,6,41.87,41.87,0,0,1,16.09,16.7,50.78,50.78,0,0,1,5.8,24.56A48.06,48.06,0,0,1,1184.37,194.19Zm-65-31q-8,7.28-9.43,19h58.82a29.48,29.48,0,0,0-9.42-18.94q-8.06-7.35-20-7.35T1119.41,163.22Z"/></g></g></svg>