<svg xmlns="http://www.w3.org/2000/svg" viewBox="0 0 321.08 327.18"><defs><style>.cls-1,.cls-4{fill:#2489f5;stroke:#2489f5;}.cls-1,.cls-2,.cls-3,.cls-4,.cls-5{stroke-miterlimit:10;}.cls-1,.cls-2{stroke-width:8px;}.cls-2,.cls-3{fill:#243746;}.cls-2,.cls-3,.cls-5{stroke:#243746;}.cls-3{stroke-width:10px;}.cls-4{stroke-width:5px;}.cls-5{fill:none;stroke-width:18px;}</style></defs><title>m-logo</title><g id="Слой_2" data-name="Слой 2"><g id="Layer_1" data-name="Layer 1"><polygon class="cls-1" points="303.08 308.71 242.31 308.71 242.31 322.98 317.08 322.98 317.08 246.8 303.08 246.8 303.08 308.71"/><polygon class="cls-2" points="303.08 18.26 303.08 80.18 317.08 80.18 317.08 4 242.31 4 242.31 18.26 303.08 18.26"/><polygon class="cls-2" points="18 18.26 78.77 18.26 78.77 4 4 4 4 80.18 18 80.18 18 18.26"/><rect class="cls-3" x="101.86" y="309.73" width="117.28" height="12.44"/><rect class="cls-2" x="303.08" y="105.5" width="14" height="113.45"/><rect class="cls-2" x="101.86" y="4" width="117.28" height="12.57"/><rect class="cls-2" x="4" y="106.13" width="14" height="112.82"/><polygon class="cls-2" points="18 308.71 18 246.8 4 246.8 4 322.98 78.77 322.98 78.77 308.71 18 308.71"/><path class="cls-4" d="M278.55,105h-11c-.24-4.72-1-9.29-3.33-13.2C259,82.85,249.58,83.17,241,83.17H186.52c-12,0-18.34,10.37-18.56,21.79H150.79c-.21-5.42-1.19-10.7-4.44-14.7-6.24-7.69-14.58-7.09-23.17-7.09H90.53c-14.52,0-39.39-3.46-39.39,19.51V105H40c-9.06,0-9.06,14.85,0,14.85H51.14v24.86a8.69,8.69,0,0,0,0,1.25,7.92,7.92,0,0,0,.24,2c1.7,11.63,10.25,17.46,21.27,17.46h28.92c15.49,0,49,6.12,49-19.52v-26H168V138c0,10.54,1,23.36,13,26.48,5.37,1.4,11.1.87,16.6.87h29.17c15.38,0,37.68,3.66,40.54-17.59a9,9,0,0,0,.21-1.86,8.69,8.69,0,0,0,0-1.25V119.81h11.13C287.62,119.81,287.62,105,278.55,105ZM138.9,138c0,8.94-6.3,16.17-14.06,16.17H76.56c-7.76,0-14.06-7.23-14.06-16.17V109.75c0-8.93,6.3-16.17,14.06-16.17h48.28c7.76,0,14.06,7.24,14.06,16.17Zm117.27.63c0,8.94-6.3,16.17-14.06,16.17H193.84c-7.77,0-14.05-7.23-14.05-16.17V110.37c0-8.92,6.28-16.17,14.05-16.17h48.27c7.76,0,14.06,7.25,14.06,16.17Z"/><line class="cls-5" x1="80.51" y1="220.84" x2="236.39" y2="237.5"/></g></g></svg>