<svg xmlns="http://www.w3.org/2000/svg" viewBox="0 0 496 496"><defs><style>.cls-1{fill:#fff;}</style></defs><title>mail</title><g id="Слой_2" data-name="Слой 2"><g id="Слой_1-2" data-name="Слой 1"><path class="cls-1" d="M496,224C496,87.75,386.05,0,248,0,110.94,0,0,110.92,0,248S110.92,496,248,496a248.63,248.63,0,0,0,147.1-48.32,12,12,0,0,0,2.09-17.21L382,411.87a12.05,12.05,0,0,0-16.43-2A200.45,200.45,0,0,1,248,448C137.72,448,48,358.28,48,248S137.72,48,248,48c109.47,0,200,65,200,176,0,63.11-42.48,98.29-83,98.29-19.5,0-20.13-12.62-16.37-31.46l28.63-148.56A12,12,0,0,0,365.45,128H326.28a12,12,0,0,0-11.79,9.73c-1.1,5.73-1.66,8.34-2.28,14-11.92-19.55-35.87-31.07-65.2-31.07-71.6,0-135,62.49-135,152.87,0,61.16,32.88,102.11,93.18,102.11,29.8,0,61.34-16.83,79.75-42.24,4.14,30.85,28.5,38,59.37,38C443.47,371.41,496,307.79,496,224ZM222.1,321.35c-28.47,0-45.47-19.46-45.47-52.05,0-57.51,39.56-93.41,74.61-93.41,30.12,0,45.47,21.53,45.47,51.58C296.71,274.33,263.53,321.35,222.1,321.35Z"/></g></g></svg>