<svg xmlns="http://www.w3.org/2000/svg" viewBox="0 0 114.8 116.57"><defs><style>.cls-1{fill:#2489f5;}</style></defs><title>mobile-logo_1</title><g id="Слой_2" data-name="Слой 2"><g id="Слой_1-2" data-name="Слой 1"><path class="cls-1" d="M114.8,81.62a26.59,26.59,0,0,1-2.33,11.26A28.62,28.62,0,0,1,106,101.8a39.77,39.77,0,0,1-9.8,6.67,67.53,67.53,0,0,1-12.56,4.59A101.08,101.08,0,0,1,69,115.72a159.93,159.93,0,0,1-17.34.85H9.56a12.39,12.39,0,0,1-6.8-1.75Q0,113.07,0,109.1V7.48C0,4.83.92,2.93,2.76,1.76A12.39,12.39,0,0,1,9.56,0H49.38A143.64,143.64,0,0,1,74.06,1.8a58.6,58.6,0,0,1,17,5.45,27.8,27.8,0,0,1,10.6,9.24,23.35,23.35,0,0,1,3.68,13.15,21.35,21.35,0,0,1-5.76,14.77,28.42,28.42,0,0,1-6.92,5.41,40.48,40.48,0,0,1-9.38,3.78,52.37,52.37,0,0,1,12.44,3.16,35.32,35.32,0,0,1,9.92,5.81,26.75,26.75,0,0,1,6.68,8.33A23.18,23.18,0,0,1,114.8,81.62ZM73.14,32.52a13.31,13.31,0,0,0-1.47-6.3,12.07,12.07,0,0,0-4.41-4.64,23.45,23.45,0,0,0-7.41-2.84,57.48,57.48,0,0,0-12-1H31.61V48h18A41.14,41.14,0,0,0,60.77,46.8a20.84,20.84,0,0,0,6.92-3.33,13.61,13.61,0,0,0,4.11-5A13.91,13.91,0,0,0,73.14,32.52Zm8.21,49.91a14.33,14.33,0,0,0-1.83-7.25,15.15,15.15,0,0,0-5.4-5.36,29.36,29.36,0,0,0-9.06-3.34,71.45,71.45,0,0,0-14.34-1.17H31.61V98.47H54.89a52.49,52.49,0,0,0,11.33-1,26.92,26.92,0,0,0,8-3.06,15.55,15.55,0,0,0,5.26-5.05A12.63,12.63,0,0,0,81.35,82.43Z"/></g></g></svg>