<svg xmlns="http://www.w3.org/2000/svg" viewBox="0 0 490 490"><defs><style class="fill-to-change"></style></defs><title>sun-2</title><g id="Слой_2" data-name="Слой 2"><g id="Слой_1-2" data-name="Слой 1"><path d="M245,421.3a20.36,20.36,0,0,0-20.4,20.4v27.9a20.4,20.4,0,1,0,40.8,0V441.7A20.36,20.36,0,0,0,245,421.3Z"/><path d="M245,91.5C160.4,91.5,91.5,160.3,91.5,245S160.3,398.5,245,398.5,398.5,329.7,398.5,245,329.6,91.5,245,91.5Zm0,266.1A112.6,112.6,0,1,1,357.6,245,112.71,112.71,0,0,1,245,357.6Z"/><path d="M245,68.7a20.36,20.36,0,0,0,20.4-20.4V20.4a20.4,20.4,0,1,0-40.8,0V48.3A20.36,20.36,0,0,0,245,68.7Z"/><path d="M469.6,224.6H441.7a20.4,20.4,0,1,0,0,40.8h27.9a20.4,20.4,0,0,0,0-40.8Z"/><path d="M48.3,224.6H20.4a20.4,20.4,0,1,0,0,40.8H48.3a20.4,20.4,0,1,0,0-40.8Z"/><path d="M398.5,120.4l19.7-19.7a20.44,20.44,0,0,0-28.9-28.9L369.6,91.5a20.44,20.44,0,0,0,28.9,28.9Z"/><path d="M91.5,369.6,71.8,389.3a20.44,20.44,0,0,0,28.9,28.9l19.7-19.7a20.44,20.44,0,0,0-28.9-28.9Z"/><path d="M398.5,369.6a20.44,20.44,0,0,0-28.9,28.9l19.7,19.7a20.44,20.44,0,0,0,28.9-28.9Z"/><path d="M91.5,120.4a20.44,20.44,0,0,0,28.9-28.9L100.7,71.8a20.44,20.44,0,0,0-28.9,28.9Z"/></g></g></svg>